<svg width="75" height="75" viewBox="0 0 75 75" xmlns="http://www.w3.org/2000/svg" xmlns:xlink="http://www.w3.org/1999/xlink" id="Product_Icon" overflow="hidden"><defs><linearGradient x1="-37.5" y1="37.5" x2="112.5" y2="37.5" gradientUnits="userSpaceOnUse" id="OrangeGradient" gradientTransform="matrix(0.707107 -0.707107 0.707107 0.707107 -15.53 37.5)"><stop offset="0" stop-color="#C8511B"/><stop offset="1" stop-color="#FF9900"/></linearGradient></defs><rect x="0" y="0" width="75" height="75" id="Orange_Gradient" fill="url(#OrangeGradient)"/><g id="Icon_Test"><path d="M36.5 15.91 36.5 25.49 38.5 25.49 38.5 15.91 43.16 20.57 44.57 19.15 38.21 12.79C37.8211 12.3979 37.1879 12.3953 36.7958 12.7842 36.7939 12.7861 36.7919 12.7881 36.79 12.79L30.43 19.15 31.84 20.57Z" fill="#FFFFFF"/><path d="M38.5 59.08 38.5 49.49 36.5 49.49 36.5 59.08 31.84 54.42 30.43 55.84 36.79 62.2C37.1789 62.5921 37.8121 62.5947 38.2042 62.2058 38.2061 62.2039 38.2081 62.2019 38.21 62.2L44.57 55.84 43.16 54.42Z" fill="#FFFFFF"/><path d="M44.5 29.65 44.5 27.49 42.5 27.49 42.5 29.49 40.5 29.49 40.5 27.49 38.5 27.49 38.5 29.49 36.5 29.49 36.5 27.49 34.5 27.49 34.5 29.49 32.5 29.49 32.5 27.49 30.5 27.49 30.5 29.65C30.1243 29.8179 29.8223 30.1164 29.65 30.49L27.5 30.49 27.5 32.49 29.5 32.49 29.5 34.49 27.5 34.49 27.5 36.49 29.5 36.49 29.5 38.49 27.5 38.49 27.5 40.49 29.5 40.49 29.5 42.49 27.5 42.49 27.5 44.49 29.65 44.49C29.8188 44.8685 30.1215 45.1712 30.5 45.34L30.5 47.49 32.5 47.49 32.5 45.49 34.5 45.49 34.5 47.49 36.5 47.49 36.5 45.49 38.5 45.49 38.5 47.49 40.5 47.49 40.5 45.49 42.5 45.49 42.5 47.49 44.5 47.49 44.5 45.34C44.8785 45.1712 45.1812 44.8685 45.35 44.49L47.5 44.49 47.5 42.49 45.5 42.49 45.5 40.49 47.5 40.49 47.5 38.49 45.5 38.49 45.5 36.49 47.5 36.49 47.5 34.49 45.5 34.49 45.5 32.49 47.5 32.49 47.5 30.49 45.35 30.49C45.1777 30.1164 44.8757 29.8179 44.5 29.65ZM43.5 43.49 31.5 43.49 31.5 31.49 43.5 31.49Z" fill="#FFFFFF"/><path d="M18.77 30.49 17.36 31.91 22 36.49 12.5 36.49 12.5 38.49 22.09 38.49 17.36 43.22 18.77 44.63 25.14 38.27C25.3272 38.0813 25.4315 37.8258 25.43 37.56 25.4289 37.2977 25.3247 37.0463 25.14 36.86Z" fill="#FFFFFF"/><path d="M62.5 36.49 53.05 36.49 57.64 31.91 56.23 30.49 49.86 36.86C49.6753 37.0463 49.5711 37.2977 49.57 37.56 49.5685 37.8258 49.6728 38.0813 49.86 38.27L56.23 44.63 57.64 43.22 52.91 38.49 62.5 38.49Z" fill="#FFFFFF"/></g></svg>